<svg width="16" height="16" viewBox="0 0 16 16" fill="none" xmlns="http://www.w3.org/2000/svg">
<path d="M15.1517 4.7391L15.8936 5.98866C16.0475 5.5038 16.0808 5.41168 15.6731 4.66788L14.0512 1.72219L13.3408 1.42501L13.2638 1.2808C13.2267 1.21116 13.2065 1.13383 13.205 1.05504C13.2035 0.976251 13.2206 0.898206 13.2551 0.827205L13.4528 0.424041L13.2218 0L11.4984 0.959244L11.7293 1.38335L12.1318 1.42501C12.2148 1.43303 12.2944 1.46177 12.3633 1.50856C12.4321 1.55535 12.4879 1.61868 12.5255 1.69264C12.7231 2.07845 12.9226 2.86218 11.8764 3.49304C11.7599 3.56388 11.6389 3.62714 11.5142 3.68245C10.7251 4.09602 10.4223 4.2542 10.3174 4.30803V4.30977C10.3174 4.30977 10.3156 4.30977 10.3104 4.31326L10.3034 4.31675H10.3017C10.2997 4.31889 10.2973 4.32062 10.2946 4.32188L10.2877 4.32537L10.2841 4.32712L10.2806 4.32886L10.2755 4.3306L10.2737 4.33235H10.272L10.2702 4.33409L8.20387 2.72485H7.69472L6.3842 1.72927L3.54275 3.71736L3.13157 3.72083L0.326907 6.02504L0.0065655 10.2896C-0.0232776 10.6851 0.0489509 11.0816 0.216421 11.4416C0.383892 11.8017 0.641064 12.1133 0.963617 12.3471L6.38404 16L11.8045 12.3471C11.8238 12.3332 11.9445 12.2376 11.9445 12.2376C12.2253 11.9992 12.4456 11.6983 12.5876 11.3595C12.7295 11.0207 12.7891 10.6535 12.7616 10.2875L12.4431 6.02472H12.4416L11.8048 5.52939C11.8048 5.52939 13.425 4.62405 13.6227 4.52146C14.1984 4.22125 14.7056 4.06488 15.1517 4.7391ZM12.5604 0.822115C12.3593 0.937443 12.1464 1.03122 11.9253 1.10185C12.1025 0.953006 12.2942 0.822029 12.4975 0.710858C12.6987 0.595376 12.9116 0.501032 13.1326 0.429334C12.9559 0.579316 12.7642 0.710923 12.5605 0.822115H12.5604ZM8.11278 3.18903L9.0893 3.95017L7.73155 3.18903H8.11278ZM6.64131 5.72447C7.12426 5.5192 7.12947 5.50031 7.18382 5.50031C7.21455 5.50174 7.24415 5.51228 7.26878 5.53057C7.29342 5.54886 7.31195 5.57407 7.32203 5.60294V5.60643L7.3238 5.60817V5.61331L7.32555 5.61505C7.33257 5.63419 7.3518 5.68458 7.39381 5.79748C7.43581 5.90869 7.5005 6.08251 7.60197 6.35362L6.95095 6.73939C6.71653 6.23719 6.64828 6.09119 6.6306 6.0547V6.05295L6.62885 6.05121C6.6282 6.04868 6.62701 6.04633 6.62539 6.04429C6.62539 6.04429 6.57466 5.93482 6.57114 5.92785C6.56209 5.90995 6.55672 5.89044 6.55536 5.87046C6.554 5.85049 6.55666 5.83044 6.5632 5.8115C6.56973 5.79256 6.57999 5.77511 6.59341 5.76016C6.60682 5.74522 6.62311 5.73309 6.64131 5.72447V5.72447ZM6.11816 7.21378L6.01318 7.02087L5.64575 6.35008C5.63462 6.33276 5.62713 6.31336 5.62374 6.29308C5.62035 6.2728 5.62114 6.25205 5.62604 6.23208C5.63095 6.21211 5.63987 6.19333 5.65228 6.17687C5.66469 6.16042 5.68033 6.14663 5.69825 6.13634L5.90648 6.02513C5.90823 6.02513 6.12348 5.91224 6.12865 5.90864C6.14738 5.89987 6.16774 5.89503 6.18844 5.89442C6.20914 5.89382 6.22974 5.89747 6.24896 5.90514C6.26817 5.91281 6.28558 5.92433 6.30011 5.939C6.31463 5.95366 6.32596 5.97114 6.33336 5.99035C6.67809 6.71851 6.40512 6.14327 6.73926 6.84711L6.11816 7.21378ZM6.15842 7.86716C6.16162 7.89735 6.15627 7.92783 6.14298 7.95516C6.12969 7.9825 6.10899 8.0056 6.08319 8.02188L5.81021 8.19041C5.77328 8.2126 5.72903 8.21939 5.68708 8.20929C5.64513 8.1992 5.6089 8.17305 5.58629 8.13653C5.42008 7.88456 5.08587 7.37189 4.73768 6.83818C4.71099 6.80413 4.69879 6.76105 4.7037 6.71817C4.7086 6.67529 4.73023 6.63601 4.76393 6.60878C5.18761 6.3568 5.1856 6.33424 5.24682 6.33424C5.27857 6.33657 5.30915 6.3471 5.33554 6.36477C5.36192 6.38245 5.38321 6.40666 5.39728 6.43501C6.20564 7.92104 6.15315 7.80815 6.15842 7.86716V7.86716ZM6.37026 2.30964L6.3003 2.98047L6.48578 3.58176L5.94161 4.73223L5.93287 3.50704L5.08779 4.00402L5.03003 3.55919L4.34939 3.72428L6.37026 2.30964ZM3.99598 7.28332C4.00746 7.27307 4.01975 7.26374 4.03272 7.25544C4.052 7.24158 4.37564 7.02087 4.38091 7.01568C4.39951 7.00522 4.42007 6.99861 4.44132 6.99628C4.46257 6.99394 4.48406 6.99592 4.50452 7.00209C4.52497 7.00826 4.54395 7.01851 4.5603 7.03219C4.57665 7.04587 4.59003 7.0627 4.59963 7.08168C5.09828 7.88112 5.24347 8.11225 5.2785 8.17127C5.2785 8.17127 5.28026 8.17127 5.28202 8.17476L5.28547 8.1799L5.28722 8.18164L5.28899 8.18677L5.29074 8.18847C5.31026 8.2205 5.31846 8.25809 5.31403 8.29527C5.30959 8.33246 5.29277 8.36712 5.26625 8.39374C5.25897 8.40271 5.25075 8.41089 5.24172 8.41812L5.051 8.5501C5.02377 8.56893 4.99148 8.57925 4.9583 8.57971C4.9318 8.57943 4.90568 8.57336 4.8818 8.56194C4.85791 8.55051 4.83685 8.53403 4.8201 8.51362L4.81835 8.51193L4.81658 8.51018V8.50849L4.81306 8.50499V8.50305L4.80791 8.49791C4.76766 8.44577 4.60841 8.23552 4.06429 7.51773C3.99252 7.6081 4.06774 7.75755 4.06774 7.75755L3.88928 7.86182C3.79984 7.6255 3.76311 7.46401 3.99583 7.28332H3.99598ZM0.879811 6.17109L3.29437 4.18301H3.48334L3.19466 4.81561L3.37137 5.56629L2.77469 5.24812L2.26908 5.57312L2.22882 5.42537C1.78602 5.67062 0.933905 6.14153 0.879653 6.17109H0.879811ZM2.81318 9.63281C2.65411 9.42741 2.42299 9.28904 2.16583 9.24526C2.34967 9.33727 2.49518 9.49041 2.57701 9.67803L2.57878 9.67972C2.58394 9.68998 2.58911 9.69881 2.59278 9.70753C2.59975 9.72293 2.6031 9.74053 2.61023 9.75444V9.75793H2.612C2.64509 9.83608 2.66915 9.91771 2.68371 10.0012C2.70343 10.09 2.70489 10.1817 2.68802 10.271C2.67115 10.3603 2.63629 10.4453 2.58554 10.5208C2.55684 10.5539 2.52178 10.5809 2.48242 10.6003C2.44306 10.6197 2.40019 10.631 2.35634 10.6337C2.22494 10.6384 2.09527 10.6029 1.98483 10.532C1.87438 10.4612 1.78847 10.3584 1.73869 10.2375C1.62617 10.0823 1.57646 9.89075 1.59943 9.70084C1.6224 9.51094 1.71636 9.33655 1.86269 9.21222C1.88372 9.20006 1.90294 9.18615 1.92573 9.17399L2.58357 8.83338L4.14256 8.01834L4.62722 8.65781C4.68309 8.73059 4.76194 8.78262 4.85114 8.80556C4.88101 8.81222 4.91153 8.81567 4.94214 8.81583L4.89667 8.86971C4.57206 9.22757 4.19233 9.532 3.77164 9.77163C3.65441 9.8208 3.53247 9.85806 3.40768 9.88284C3.296 9.89437 3.18321 9.87762 3.0798 9.83417C2.97639 9.79072 2.88574 9.72199 2.81629 9.63436L2.81318 9.63281ZM2.8447 12.9312L3.11065 12.3786L2.94267 12.4064C2.90945 12.4115 2.89369 12.391 2.9077 12.3612L3.22085 11.7113L3.05639 11.7321C3.02316 11.7372 3.00741 11.7147 3.02141 11.6834L3.37482 10.9518C3.38888 10.9206 3.41337 10.9206 3.42908 10.9518L3.78078 11.6834C3.79654 11.7147 3.78078 11.7373 3.74575 11.7321L3.58305 11.7113L3.8945 12.3612C3.91 12.3907 3.89451 12.4116 3.85953 12.4064L3.69155 12.3786L4.08873 13.2023C4.10273 13.2318 4.08872 13.2509 4.05374 13.2422L3.83323 13.1849L4.06248 13.6645H4.06424L4.12547 13.7914L2.8447 12.9312ZM8.72185 8.33308C8.2529 9.01777 7.37458 10.3055 7.36936 10.3107C7.35361 10.335 6.73942 11.1901 6.73942 11.1901L6.81646 12.5873L7.10162 11.6106C7.1209 11.6315 7.44981 11.9356 7.4586 11.9425L7.40084 10.7747L7.61266 10.4949L7.94505 14.2468L6.35987 15.2826L4.89719 14.2973L5.18937 11.0129L5.61977 10.7679L5.05813 10.5993L4.42825 9.73201L5.47106 9.09249C5.48839 9.08205 5.50856 9.07719 5.52879 9.07858H5.53229C5.56456 9.08149 5.59485 9.0953 5.6181 9.11772C5.64134 9.14014 5.65615 9.16979 5.66002 9.20174L5.73349 9.81525L6.12018 8.69606L6.90553 8.21294L6.67304 9.4277L7.72283 7.67774C7.56856 7.72671 7.41137 7.76614 7.25218 7.79578C7.00897 7.84622 6.77627 7.88614 6.77627 7.88614C6.70347 7.886 6.63198 7.86681 6.56901 7.83052C6.50605 7.79422 6.45382 7.7421 6.41758 7.67939L6.28459 7.44993L7.79981 6.56018C7.82533 6.54528 7.8547 6.53817 7.88425 6.53973C7.91381 6.54128 7.94223 6.55142 7.96602 6.5689L8.28638 6.80174C8.40522 6.88867 8.40713 7.00332 8.44211 7.08851L8.76054 8.11555C8.76737 8.13751 8.77085 8.16035 8.77087 8.18333C8.77064 8.2371 8.75338 8.28944 8.72153 8.33292L8.72185 8.33308ZM8.90381 13.616C8.90504 13.6052 8.90799 13.5947 8.91254 13.5847L9.01403 13.3727L9.36568 12.6446L9.02803 12.7315C8.97729 12.7454 8.95455 12.7176 8.97729 12.6707L9.57916 11.4195L9.32372 11.4611C9.27299 11.4698 9.2485 11.4368 9.27123 11.3899L9.74539 10.4046L9.49692 10.4359C9.44618 10.441 9.42169 10.4081 9.44443 10.3612L9.97986 9.24547C10.0026 9.19856 10.0393 9.19856 10.0621 9.24547L10.5994 10.3612C10.6222 10.4081 10.5977 10.4411 10.5452 10.4359L10.2985 10.4046L10.7727 11.3899C10.7954 11.4368 10.7709 11.4698 10.7184 11.4611L10.4647 11.4195L10.8829 12.2883L8.90381 13.616ZM8.65359 6.9637C8.62314 6.82264 8.54314 6.69695 8.4279 6.60914L8.10947 6.37456C8.04251 6.32575 7.96156 6.29956 7.87851 6.29984C7.86818 6.29984 7.85747 6.30154 7.84523 6.30154C7.84523 6.30154 7.76653 6.09114 7.76478 6.08436C12.2562 3.68441 11.8712 3.90332 12.0182 3.81131C12.3757 3.59601 12.6954 3.32425 12.9648 3.0067C12.5606 3.8982 11.6595 4.51166 10.4015 5.46049C10.417 5.45356 10.5049 5.41876 13.5422 4.16213C12.5272 4.74259 9.54404 6.45263 8.65343 6.9635L8.65359 6.9637Z" fill="#091F40"/>
<path d="M13.133 0.429199C12.9121 0.500897 12.6992 0.595241 12.4979 0.710724C12.2946 0.821894 12.103 0.952871 11.9258 1.10172C12.1469 1.03108 12.3598 0.937308 12.5609 0.82198C12.7646 0.710791 12.9563 0.579184 13.133 0.429199V0.429199Z" fill="#F0B533"/>
<path d="M2.26915 5.57322L2.77477 5.24822L3.37144 5.56639L3.19473 4.81571L3.48341 4.18311H3.29445L0.879883 6.17118C0.934135 6.14162 1.78625 5.67072 2.22889 5.42563L2.26915 5.57322Z" fill="#F0B533"/>
<path d="M5.08795 4.0041L5.93273 3.50734L5.94151 4.73231L6.4861 3.58175L6.30061 2.98081L6.37036 2.30957L4.34961 3.72442L5.03008 3.55917L5.08795 4.0041Z" fill="#F0B533"/>
<path d="M8.11276 3.18896H7.73145L9.08878 3.95002L8.11276 3.18896Z" fill="#F0B533"/>
<path d="M12.9647 3.00635C12.6953 3.3239 12.3755 3.59567 12.018 3.81097C11.8711 3.90309 12.256 3.68405 7.76465 6.08401C7.76641 6.09094 7.84508 6.30118 7.84508 6.30118C7.85733 6.30118 7.86783 6.29949 7.87837 6.29949C7.96142 6.29921 8.04237 6.3254 8.10932 6.37421L8.42775 6.6088C8.543 6.69661 8.623 6.82229 8.65344 6.96335C9.54405 6.45242 12.5272 4.7424 13.542 4.16193C10.5046 5.41841 10.4171 5.45321 10.4014 5.46029C11.6594 4.51131 12.5605 3.89785 12.9647 3.00635Z" fill="#F0B533"/>
<path d="M6.62585 6.04397C6.62748 6.04602 6.62867 6.04839 6.62932 6.05091L6.63107 6.05265V6.0544C6.64859 6.09089 6.71686 6.23689 6.95143 6.73909L7.60244 6.35333C7.50096 6.08221 7.43628 5.90839 7.39427 5.79719C7.35227 5.68429 7.33304 5.63389 7.32601 5.61475L7.32426 5.61301V5.60787L7.32251 5.60614V5.60264C7.31244 5.57378 7.29388 5.54857 7.26925 5.53027C7.24461 5.51198 7.21502 5.50143 7.18429 5.5C7.13004 5.5 7.12483 5.51909 6.64178 5.72416C6.62361 5.73279 6.60734 5.74495 6.59395 5.7599C6.58057 5.77485 6.57032 5.7923 6.56381 5.81123C6.55729 5.83017 6.55464 5.85021 6.55602 5.87017C6.55739 5.89013 6.56277 5.90961 6.57182 5.92749C6.57512 5.93452 6.62585 6.04397 6.62585 6.04397Z" fill="#F0B533"/>
<path d="M6.33376 5.99052C6.32635 5.97131 6.31503 5.95383 6.3005 5.93917C6.28598 5.9245 6.26857 5.91298 6.24935 5.90531C6.23014 5.89764 6.20954 5.89399 6.18883 5.8946C6.16813 5.8952 6.14777 5.90004 6.12904 5.90882C6.12388 5.91231 5.90863 6.0253 5.90687 6.0253L5.69864 6.13651C5.68072 6.1468 5.66509 6.16059 5.65268 6.17704C5.64027 6.1935 5.63134 6.21228 5.62644 6.23225C5.62153 6.25222 5.62075 6.27297 5.62414 6.29325C5.62752 6.31353 5.63501 6.33293 5.64615 6.35026L6.01357 7.02104L6.11856 7.21395L6.73966 6.84728C6.40552 6.14345 6.67849 6.71868 6.33376 5.99052Z" fill="#F0B533"/>
<path d="M5.24732 6.33447C5.18609 6.33447 5.18785 6.35705 4.76442 6.60903C4.73072 6.63626 4.70909 6.67553 4.70419 6.71841C4.69928 6.76128 4.71148 6.80436 4.73817 6.83842C5.08636 7.37213 5.42057 7.88459 5.58678 8.13677C5.6094 8.17329 5.64563 8.19944 5.68757 8.20953C5.72952 8.21963 5.77378 8.21283 5.81071 8.19065L6.08368 8.02212C6.10948 8.00584 6.13018 7.98274 6.14347 7.9554C6.15676 7.92806 6.16212 7.89759 6.15891 7.8674C6.15374 7.80838 6.20613 7.92128 5.39777 6.43561C5.38375 6.40719 5.36248 6.38291 5.33609 6.36517C5.3097 6.34743 5.2791 6.33684 5.24732 6.33447V6.33447Z" fill="#F0B533"/>
<path d="M4.06757 7.75753C4.06757 7.75753 3.99235 7.6081 4.06412 7.51772C4.60824 8.23546 4.76749 8.44572 4.80774 8.49791L4.81289 8.50303V8.50478L4.81641 8.50827V8.50997L4.81816 8.5117L4.81993 8.5134C4.83668 8.5338 4.85774 8.5503 4.88163 8.56173C4.90551 8.57315 4.93162 8.57922 4.95813 8.5795C4.99131 8.57904 5.0236 8.56872 5.05083 8.54989L5.24155 8.41789C5.25058 8.41066 5.2588 8.4025 5.26608 8.39353C5.2926 8.36691 5.30942 8.33225 5.31386 8.29506C5.31829 8.25788 5.31009 8.22029 5.29057 8.18826L5.28882 8.18655L5.28705 8.18143L5.2853 8.17967L5.28183 8.17455C5.28008 8.17106 5.27833 8.17106 5.27833 8.17106C5.2433 8.11204 5.09811 7.88091 4.59946 7.08147C4.58986 7.06249 4.57648 7.04566 4.56013 7.03198C4.54378 7.0183 4.5248 7.00805 4.50435 7.00188C4.48389 6.99571 4.46238 6.99373 4.44113 6.99607C4.41988 6.99841 4.39934 7.00501 4.38074 7.01547C4.37557 7.0206 4.05183 7.24127 4.03255 7.25523C4.01958 7.26353 4.00729 7.27284 3.99581 7.28309C3.76331 7.46378 3.79983 7.62545 3.88906 7.86177L4.06757 7.75753Z" fill="#F0B533"/>
<path d="M3.40846 9.88306C3.53325 9.85828 3.65519 9.82102 3.77242 9.77185C4.19311 9.53222 4.57284 9.22779 4.89745 8.86992L4.94291 8.81605C4.91229 8.81589 4.88179 8.81244 4.85192 8.80578C4.76272 8.78284 4.68386 8.73082 4.62799 8.65805L4.14334 8.01855L2.58435 8.83361L1.92651 9.1742C1.90373 9.18637 1.8845 9.20027 1.86347 9.21243C1.71714 9.33677 1.62318 9.51116 1.60021 9.70106C1.57724 9.89096 1.62695 10.0825 1.73947 10.2377C1.78925 10.3586 1.87515 10.4614 1.98559 10.5322C2.09604 10.6031 2.22571 10.6386 2.3571 10.6339C2.40095 10.6312 2.44382 10.6199 2.48318 10.6005C2.52254 10.5811 2.5576 10.5541 2.58631 10.521C2.63706 10.4455 2.67193 10.3605 2.6888 10.2712C2.70567 10.1819 2.70419 10.0902 2.68448 10.0015C2.66991 9.91792 2.64586 9.83629 2.61276 9.75814H2.61101V9.75467C2.60404 9.74076 2.60067 9.72336 2.59354 9.70776C2.59003 9.69904 2.58476 9.69035 2.57954 9.67993L2.57779 9.67824C2.49596 9.49063 2.35045 9.33748 2.16661 9.24548C2.42377 9.28926 2.65489 9.42762 2.81396 9.63303L2.81748 9.63478C2.88691 9.72231 2.97751 9.79097 3.08084 9.83438C3.18416 9.87779 3.29687 9.89453 3.40846 9.88306V9.88306Z" fill="#F0B533"/>
<path d="M10.7177 11.4608C10.7702 11.4695 10.7947 11.4365 10.772 11.3896L10.2978 10.4043L10.5445 10.4356C10.597 10.4407 10.6215 10.4078 10.5987 10.3609L10.0614 9.24514C10.0386 9.19823 10.0019 9.19823 9.97915 9.24514L9.44392 10.3606C9.42119 10.4075 9.44568 10.4405 9.49642 10.4353L9.74489 10.404L9.27073 11.3893C9.248 11.4362 9.27248 11.4692 9.32322 11.4606L9.57868 11.4189L8.97678 12.6701C8.95405 12.717 8.97679 12.7448 9.02752 12.7309L9.36518 12.644L9.01352 13.3721L8.91204 13.5842C8.90749 13.5941 8.90456 13.6046 8.90332 13.6155L10.8822 12.2878L10.4641 11.4189L10.7177 11.4608Z" fill="#F0B533"/>
<path d="M4.06249 13.6644L3.83323 13.1848L4.05377 13.2421C4.08874 13.2508 4.10274 13.2318 4.08874 13.2021L3.69156 12.3784L3.85954 12.4062C3.89452 12.4114 3.91023 12.3908 3.89452 12.361L3.58306 11.7111L3.74577 11.7319C3.7808 11.7371 3.79655 11.7146 3.78079 11.6833L3.42909 10.9517C3.41359 10.9204 3.38888 10.9204 3.37483 10.9517L3.02142 11.6833C3.00742 11.7146 3.02319 11.7371 3.05641 11.7319L3.22087 11.7111L2.9077 12.361C2.8937 12.3906 2.90945 12.4115 2.94268 12.4062L3.11065 12.3784L2.84473 12.9311L4.12548 13.7913L4.06425 13.6644H4.06249Z" fill="#F0B533"/>
<path d="M8.44159 7.08856C8.40661 7.00337 8.40486 6.88872 8.28587 6.80179L7.96553 6.56895C7.94174 6.55147 7.91329 6.54131 7.88374 6.53976C7.85418 6.53821 7.82481 6.54533 7.7993 6.56023L6.28408 7.44998L6.41707 7.67944C6.45331 7.74215 6.50554 7.79427 6.5685 7.83057C6.63147 7.86686 6.70295 7.88605 6.77576 7.88619C6.77576 7.88619 7.00825 7.84627 7.25166 7.79583C7.41085 7.76619 7.56805 7.72676 7.72232 7.67779L6.67252 9.42775L6.90502 8.21299L6.11967 8.69611L5.73297 9.8153L5.65951 9.20179C5.65563 9.16984 5.64083 9.14019 5.61758 9.11777C5.59434 9.09535 5.56404 9.08154 5.53177 9.07863H5.52827C5.50805 9.07724 5.48788 9.0821 5.47055 9.09254L4.42773 9.73206L5.05762 10.5993L5.61926 10.768L5.18885 11.013L4.89667 14.2973L6.35936 15.2827L7.94454 14.2469L7.61215 10.495L7.40032 10.7747L7.45808 11.9426C7.4493 11.9356 7.12038 11.6315 7.10111 11.6106L6.81595 12.5873L6.73891 11.1901C6.73891 11.1901 7.35309 10.335 7.36885 10.3107C7.37402 10.3056 8.25239 9.01782 8.72133 8.33313C8.75303 8.28965 8.77015 8.23737 8.77031 8.18369C8.77029 8.16071 8.76681 8.13785 8.75998 8.1159L8.44159 7.08856Z" fill="#F0B533"/>
</svg>
